<svg width="20" height="20" viewBox="0 0 20 20" fill="none" xmlns="http://www.w3.org/2000/svg">
<path d="M14.1667 11.6667V16.6667M11.6667 14.1667H16.6667M5.00001 8.33334H6.66668C7.58715 8.33334 8.33334 7.58714 8.33334 6.66667V5C8.33334 4.07953 7.58715 3.33334 6.66668 3.33334H5.00001C4.07954 3.33334 3.33334 4.07953 3.33334 5V6.66667C3.33334 7.58714 4.07954 8.33334 5.00001 8.33334ZM13.3333 8.33334H15C15.9205 8.33334 16.6667 7.58714 16.6667 6.66667V5C16.6667 4.07953 15.9205 3.33334 15 3.33334H13.3333C12.4129 3.33334 11.6667 4.07953 11.6667 5V6.66667C11.6667 7.58714 12.4129 8.33334 13.3333 8.33334ZM5.00001 16.6667H6.66668C7.58715 16.6667 8.33334 15.9205 8.33334 15V13.3333C8.33334 12.4129 7.58715 11.6667 6.66668 11.6667H5.00001C4.07954 11.6667 3.33334 12.4129 3.33334 13.3333V15C3.33334 15.9205 4.07954 16.6667 5.00001 16.6667Z" stroke="#FF6600" stroke-width="1.5" stroke-linecap="round" stroke-linejoin="round"/>
</svg>
