<svg width="29" height="30" viewBox="0 0 29 30" fill="none" xmlns="http://www.w3.org/2000/svg">
<path d="M23.5723 0C21.9677 0 20.6669 1.39102 20.6669 3.10693V12.3773H25.6558C26.1097 12.3773 26.4777 11.9838 26.4777 11.4984V3.10693C26.4777 1.39102 25.1769 0 23.5723 0V0Z" fill="#FF82AC"/>
<path d="M10.0076 22.0898C10.0076 16.7805 14.0464 12.4076 19.0779 12.4223V3.48551C19.0779 2.14857 19.5485 0.927129 20.3215 0H5.82518C3.56004 0 1.7168 1.97109 1.7168 4.39336V29.1053C1.7168 29.8959 2.62127 30.2844 3.13265 29.7129L4.18413 28.5387L5.29478 29.727C5.61532 30.0697 6.13586 30.0697 6.45695 29.727L7.50952 28.602L8.57251 29.7293C8.89305 30.0691 9.40974 30.0691 9.73028 29.7293L10.8103 28.5844L11.8908 29.7293C12.2108 30.0691 12.7269 30.0691 13.0475 29.7299L13.2568 29.5084C11.2189 27.6864 10.0076 24.9923 10.0076 22.0898ZM8.36572 7.08984H9.98781V5.35523C9.98781 4.86984 10.3558 4.47633 10.8097 4.47633C11.2636 4.47633 11.6316 4.86984 11.6316 5.35523V7.08984H13.2537C13.7076 7.08984 14.0756 7.48336 14.0756 7.96875C14.0756 8.45414 13.7076 8.84766 13.2537 8.84766H11.6316V10.5823C11.6316 11.0677 11.2636 11.4612 10.8097 11.4612C10.3558 11.4612 9.98781 11.0677 9.98781 10.5823V8.84766H8.36572C7.91181 8.84766 7.54382 8.45414 7.54382 7.96875C7.54382 7.48336 7.91181 7.08984 8.36572 7.08984ZM5.87828 13.2451H11.4124C11.8663 13.2451 12.2343 13.6386 12.2343 14.124C12.2343 14.6094 11.8663 15.0029 11.4124 15.0029H5.87828C5.42437 15.0029 5.05638 14.6094 5.05638 14.124C5.05638 13.6386 5.42437 13.2451 5.87828 13.2451ZM8.62067 22.0283H5.8728C5.41889 22.0283 5.0509 21.6348 5.0509 21.1494C5.0509 20.664 5.41889 20.2705 5.8728 20.2705H8.62067C9.07457 20.2705 9.44257 20.664 9.44257 21.1494C9.44257 21.6348 9.07457 22.0283 8.62067 22.0283ZM9.16865 18.5186H5.87548C5.42158 18.5186 5.05359 18.125 5.05359 17.6396C5.05359 17.1543 5.42158 16.7607 5.87548 16.7607H9.16865C9.62256 16.7607 9.99055 17.1543 9.99055 17.6396C9.99055 18.125 9.62256 18.5186 9.16865 18.5186Z" fill="#FF82AC"/>
<path d="M19.0484 14.1797C14.9697 14.1797 11.6514 17.7282 11.6514 22.0898C11.6514 26.4515 14.9697 30 19.0484 30C23.1272 30 26.4455 26.4515 26.4455 22.0898C26.4455 17.7282 23.1272 14.1797 19.0484 14.1797ZM19.8729 25.4747V25.5583C19.8729 26.0437 19.5049 26.4372 19.051 26.4372C18.5971 26.4372 18.2291 26.0437 18.2291 25.5583V25.5434C17.861 25.4496 17.5194 25.2945 17.2485 25.105C16.8687 24.8392 16.7622 24.2946 17.0107 23.8883C17.2592 23.482 17.7686 23.3682 18.1485 23.634C18.4848 23.8693 19.0393 23.9587 19.3119 23.8216C19.4885 23.7327 19.6251 23.543 19.6441 23.3603C19.6849 22.9712 19.1147 22.7541 18.7742 22.6103C18.2591 22.3927 17.6179 22.1219 17.2457 21.4033C16.7151 20.3791 17.1798 19.0287 18.2291 18.5669V18.5227C18.2291 18.0373 18.5971 17.6437 19.051 17.6437C19.5004 17.6437 19.8651 18.0296 19.8722 18.5084C20.1681 18.6073 20.4406 18.7655 20.6588 18.9807C20.9925 19.3098 21.0135 19.8658 20.7057 20.2226C20.3979 20.5795 19.8779 20.6019 19.5443 20.2728C19.4091 20.1394 18.9924 20.0856 18.8113 20.2156C18.6896 20.3031 18.6419 20.4709 18.6836 20.5514C18.8571 20.8865 19.7662 21.0013 20.4541 21.5746C21.8594 22.7457 21.3705 24.8604 19.8729 25.4747Z" fill="#FF82AC"/>
</svg>
