<svg width="67" height="70" viewBox="0 0 67 70" fill="none" xmlns="http://www.w3.org/2000/svg">
<ellipse cx="33.584" cy="35" rx="32.7297" ry="35" fill="#E7EDFF"/>
<path d="M36.097 34.843C39.9237 34.843 43.0365 31.5137 43.0365 27.4215C43.0365 23.3293 39.9237 20 36.097 20C32.2702 20 29.1569 23.3293 29.1569 27.4215C29.1569 31.5137 32.2702 34.843 36.097 34.843ZM35.2751 23.0592V22.8576C35.2751 22.3719 35.6427 21.9787 36.097 21.9787C36.5507 21.9787 36.9189 22.3719 36.9189 22.8576V23.0604C37.8969 23.2848 38.6328 24.2164 38.6328 25.3285C38.6328 25.8137 38.2646 26.2074 37.8109 26.2074C37.3567 26.2074 36.989 25.8137 36.989 25.3285C36.989 25.0186 36.7528 24.766 36.463 24.766H35.726C35.4362 24.766 35.2 25.0186 35.2 25.3285C35.2 25.5061 35.2795 25.6748 35.4132 25.7803L36.097 26.3217L37.7583 27.6365C38.304 28.0684 38.6328 28.7592 38.6372 29.4858V29.494C38.641 30.1139 38.4191 30.6987 38.0114 31.1399C37.709 31.4674 37.3309 31.6871 36.9189 31.7797V31.9854C36.9189 32.4711 36.5507 32.8643 36.097 32.8643C35.6427 32.8643 35.2751 32.4711 35.2751 31.9854V31.7827C34.874 31.6912 34.5052 31.4803 34.2072 31.1651C33.7946 30.7297 33.5655 30.1485 33.5622 29.5285C33.5595 29.0434 33.925 28.6473 34.3787 28.6444H34.3841C34.8356 28.6444 35.2033 29.0346 35.206 29.518C35.2071 29.8213 35.4353 30.077 35.7348 30.077C36.1889 30.0741 36.0198 30.0751 36.4707 30.0723C36.7624 30.0698 36.9956 29.8167 36.9934 29.5057V29.4975C36.9923 29.3217 36.9128 29.1541 36.7802 29.0492L36.097 28.5084L34.4351 27.1936C33.885 26.7576 33.5562 26.0604 33.5562 25.3285C33.5562 24.2141 34.2943 23.2818 35.2751 23.0592Z" fill="#396AFF"/>
<path d="M24.8522 39.066C24.6415 38.6754 24.1735 38.5395 23.806 38.7662L19.9399 41.1528C19.5739 41.3793 19.4483 41.88 19.6596 42.272L23.611 49.5905C23.8225 49.9819 24.2904 50.1163 24.6572 49.8903L28.5233 47.5032C28.8899 47.2771 29.015 46.7764 28.8036 46.3844L24.8522 39.066Z" fill="#396AFF"/>
<path d="M47.0046 37.6051C46.6326 37.0526 45.9126 36.9278 45.3965 37.3257C43.8305 38.5321 40.8234 40.8489 40.5845 41.0335C40.4744 41.1337 40.3588 41.2245 40.2382 41.3048C39.7654 41.6229 39.2169 41.7929 38.6443 41.7929H34.7074C34.2537 41.7929 33.8855 41.3997 33.8855 40.9139C33.8855 40.4276 34.2543 40.035 34.7074 40.035H38.9177C39.5363 40.035 40.0317 39.4843 40.0059 38.8216C39.9818 38.1928 39.4799 37.7053 38.8914 37.7053H35.6866C35.4696 37.4598 35.2318 37.2348 34.977 37.0339C34.1008 36.343 33.0181 35.9346 31.8461 35.9346C29.7623 35.9346 27.6889 37.3385 26.8292 39.2124L30.1913 45.4392H36.498C37.7364 45.4392 38.9561 45.1005 40.0295 44.4401C40.4015 44.2116 40.7999 43.9368 41.2316 43.6052C43.0409 42.2153 46.74 39.3278 46.7427 39.326C47.26 38.9288 47.3772 38.1577 47.0046 37.6051Z" fill="#396AFF"/>
</svg>
